<svg data-v-423bf9ae="" xmlns="http://www.w3.org/2000/svg" viewBox="0 0 371 90" class="iconLeft"><!----><!----><!----><g data-v-423bf9ae="" id="caff8425-bbcc-46c0-8bbf-87b835aef2a2" fill="#FFFFFF" transform="matrix(4.576659158754479,0,0,4.576659158754479,164.33731753404157,-0.10297476723908261)"><path d="M0.70 13.52L0.70 6.24L2.27 6.24L2.27 7.17L2.27 7.17Q2.51 6.68 2.88 6.39L2.88 6.39L2.88 6.39Q3.25 6.10 3.70 6.08L3.70 6.08L3.70 6.08Q4.28 6.03 4.65 6.29L4.65 6.29L4.65 6.29Q5.01 6.55 5.16 6.92L5.16 6.92L5.16 6.92Q5.31 7.29 5.24 7.68L5.24 7.68L5.24 7.68Q5.17 8.06 4.86 8.29L4.86 8.29L4.86 8.29Q4.73 7.94 4.38 7.83L4.38 7.83L4.38 7.83Q4.02 7.73 3.63 7.86L3.63 7.86L3.63 7.86Q3.23 7.99 2.92 8.36L2.92 8.36L2.92 8.36Q2.60 8.72 2.55 9.31L2.55 9.31L2.55 9.31Q2.52 9.65 2.52 9.98L2.52 9.98L2.52 9.98Q2.52 10.30 2.52 10.58L2.52 10.58L2.52 13.52L0.70 13.52ZM11.48 13.52L11.48 12.73L11.48 12.73Q10.95 13.24 10.32 13.48L10.32 13.48L10.32 13.48Q9.70 13.72 9.07 13.70L9.07 13.70L9.07 13.70Q8.44 13.68 7.85 13.41L7.85 13.41L7.85 13.41Q7.25 13.15 6.80 12.65L6.80 12.65L6.80 12.65Q6.34 12.15 6.07 11.46L6.07 11.46L6.07 11.46Q5.80 10.77 5.80 9.88L5.80 9.88L5.80 9.88Q5.80 9.04 6.09 8.33L6.09 8.33L6.09 8.33Q6.38 7.62 6.88 7.11L6.88 7.11L6.88 7.11Q7.38 6.61 8.02 6.34L8.02 6.34L8.02 6.34Q8.65 6.06 9.34 6.09L9.34 6.09L9.34 6.09Q10.01 6.12 10.42 6.39L10.42 6.39L10.42 6.39Q10.82 6.66 11.01 7.03L11.01 7.03L11.01 7.03Q11.20 7.39 11.21 7.76L11.21 7.76L11.21 7.76Q11.21 8.13 11.09 8.36L11.09 8.36L11.09 8.36Q10.85 8.01 10.42 7.89L10.42 7.89L10.42 7.89Q9.98 7.77 9.58 7.77L9.58 7.77L9.58 7.77Q8.93 7.77 8.50 8.09L8.50 8.09L8.50 8.09Q8.06 8.40 7.84 8.88L7.84 8.88L7.84 8.88Q7.62 9.35 7.61 9.91L7.61 9.91L7.61 9.91Q7.60 10.46 7.82 10.93L7.82 10.93L7.82 10.93Q8.04 11.41 8.48 11.73L8.48 11.73L8.48 11.73Q8.92 12.04 9.58 12.04L9.58 12.04L9.58 12.04Q10.14 12.04 10.50 11.79L10.50 11.79L10.50 11.79Q10.86 11.54 11.08 11.14L11.08 11.14L11.08 11.14Q11.30 10.74 11.39 10.24L11.39 10.24L11.39 10.24Q11.48 9.74 11.48 9.25L11.48 9.25L11.48 7.04L11.48 6.27L13.30 6.27L13.30 13.52L11.48 13.52ZM16.83 6.29L16.83 13.80L16.83 13.80Q16.83 14.83 16.63 15.34L16.63 15.34L16.63 15.34Q16.41 15.90 15.95 16.16L15.95 16.16L15.95 16.16Q15.50 16.41 14.91 16.41L14.91 16.41L14.91 16.41Q14.45 16.41 14.06 16.23L14.06 16.23L14.06 16.23Q13.68 16.06 13.45 15.79L13.45 15.79L13.45 15.79Q13.22 15.51 13.17 15.17L13.17 15.17L13.17 15.17Q13.13 14.83 13.37 14.49L13.37 14.49L13.37 14.49Q13.50 14.62 13.69 14.73L13.69 14.73L13.69 14.73Q13.87 14.84 14.08 14.89L14.08 14.89L14.08 14.89Q14.29 14.94 14.49 14.90L14.49 14.90L14.49 14.90Q14.69 14.87 14.83 14.70L14.83 14.70L14.83 14.70Q15.01 14.50 15.01 13.93L15.01 13.93L15.01 13.93Q15.01 12.39 15.00 10.86L15.00 10.86L15.00 10.86Q14.99 9.32 14.99 7.77L14.99 7.77L14.99 7.77Q15.02 7.34 15.17 7.06L15.17 7.06L15.17 7.06Q15.32 6.78 15.56 6.61L15.56 6.61L15.56 6.61Q15.81 6.44 16.13 6.37L16.13 6.37L16.13 6.37Q16.45 6.30 16.83 6.29L16.83 6.29ZM15.92 3.30L15.92 3.30L15.92 3.30Q16.39 3.30 16.74 3.65L16.74 3.65L16.74 3.65Q17.08 3.99 17.08 4.49L17.08 4.49L17.08 4.49Q17.08 4.98 16.74 5.32L16.74 5.32L16.74 5.32Q16.55 5.52 16.29 5.60L16.29 5.60L16.29 5.60Q16.03 5.68 15.77 5.75L15.77 5.75L15.77 5.75Q15.51 5.82 15.29 5.94L15.29 5.94L15.29 5.94Q15.08 6.05 14.99 6.29L14.99 6.29L14.99 6.29Q14.92 6.06 14.85 5.71L14.85 5.71L14.85 5.71Q14.77 5.36 14.75 4.98L14.75 4.98L14.75 4.98Q14.73 4.59 14.79 4.24L14.79 4.24L14.79 4.24Q14.85 3.88 15.09 3.64L15.09 3.64L15.09 3.64Q15.43 3.30 15.92 3.30ZM20.73 13.54L18.13 6.29L19.89 6.29L21.36 10.42L22.55 7.31L22.55 7.31Q22.68 6.97 22.84 6.77L22.84 6.77L22.84 6.77Q23.00 6.57 23.19 6.45L23.19 6.45L23.19 6.45Q23.38 6.34 23.60 6.31L23.60 6.31L23.60 6.31Q23.81 6.27 24.04 6.29L24.04 6.29L25.58 10.36L26.68 7.27L26.68 7.27Q26.84 6.85 27.08 6.61L27.08 6.61L27.08 6.61Q27.33 6.37 27.62 6.27L27.62 6.27L27.62 6.27Q27.90 6.16 28.21 6.17L28.21 6.17L28.21 6.17Q28.52 6.19 28.81 6.29L28.81 6.29L26.19 13.54L25.03 13.54L23.48 9.41L21.88 13.54L20.73 13.54ZM35.34 13.52L35.34 12.73L35.34 12.73Q34.80 13.24 34.18 13.48L34.18 13.48L34.18 13.48Q33.56 13.72 32.93 13.70L32.93 13.70L32.93 13.70Q32.30 13.68 31.70 13.41L31.70 13.41L31.70 13.41Q31.11 13.15 30.65 12.65L30.65 12.65L30.65 12.65Q30.20 12.15 29.93 11.46L29.93 11.46L29.93 11.46Q29.65 10.77 29.65 9.88L29.65 9.88L29.65 9.88Q29.65 9.04 29.95 8.33L29.95 8.33L29.95 8.33Q30.24 7.62 30.74 7.11L30.74 7.11L30.74 7.11Q31.23 6.61 31.87 6.34L31.87 6.34L31.87 6.34Q32.51 6.06 33.19 6.09L33.19 6.09L33.19 6.09Q33.87 6.12 34.27 6.39L34.27 6.39L34.27 6.39Q34.68 6.66 34.87 7.03L34.87 7.03L34.87 7.03Q35.06 7.39 35.06 7.76L35.06 7.76L35.06 7.76Q35.07 8.13 34.94 8.36L34.94 8.36L34.94 8.36Q34.71 8.01 34.27 7.89L34.27 7.89L34.27 7.89Q33.84 7.77 33.43 7.77L33.43 7.77L33.43 7.77Q32.79 7.77 32.35 8.09L32.35 8.09L32.35 8.09Q31.92 8.40 31.70 8.88L31.70 8.88L31.70 8.88Q31.47 9.35 31.46 9.91L31.46 9.91L31.46 9.91Q31.46 10.46 31.68 10.93L31.68 10.93L31.68 10.93Q31.89 11.41 32.33 11.73L32.33 11.73L32.33 11.73Q32.77 12.04 33.43 12.04L33.43 12.04L33.43 12.04Q33.99 12.04 34.36 11.79L34.36 11.79L34.36 11.79Q34.72 11.54 34.94 11.14L34.94 11.14L34.94 11.14Q35.15 10.74 35.24 10.24L35.24 10.24L35.24 10.24Q35.34 9.74 35.34 9.25L35.34 9.25L35.34 7.04L35.34 6.27L37.16 6.27L37.16 13.52L35.34 13.52ZM40.36 6.27L40.36 7.11L40.36 7.11Q40.47 6.86 40.70 6.68L40.70 6.68L40.70 6.68Q40.94 6.50 41.22 6.37L41.22 6.37L41.22 6.37Q41.50 6.24 41.79 6.17L41.79 6.17L41.79 6.17Q42.08 6.10 42.34 6.09L42.34 6.09L42.34 6.09Q42.87 6.06 43.39 6.24L43.39 6.24L43.39 6.24Q43.90 6.41 44.34 6.85L44.34 6.85L44.34 6.85Q44.97 7.50 44.97 8.74L44.97 8.74L44.97 13.52L43.18 13.52L43.18 13.52Q43.18 13.29 43.18 12.88L43.18 12.88L43.18 12.88Q43.19 12.47 43.19 11.99L43.19 11.99L43.19 11.99Q43.19 11.51 43.19 10.99L43.19 10.99L43.19 10.99Q43.19 10.47 43.18 10.01L43.18 10.01L43.18 10.01Q43.16 9.55 43.13 9.18L43.13 9.18L43.13 9.18Q43.11 8.82 43.06 8.65L43.06 8.65L43.06 8.65Q42.95 8.20 42.64 7.98L42.64 7.98L42.64 7.98Q42.32 7.76 41.96 7.76L41.96 7.76L41.96 7.76Q41.48 7.76 41.22 8.02L41.22 8.02L41.22 8.02Q40.95 8.27 40.95 8.69L40.95 8.69L40.95 8.69Q40.78 8.64 40.61 8.46L40.61 8.46L40.61 8.46Q40.45 8.29 40.36 8.09L40.36 8.09L40.36 8.47L40.36 13.52L38.56 13.52L38.56 6.27L40.36 6.27Z"></path></g><defs data-v-423bf9ae=""><linearGradient data-v-423bf9ae="" gradientTransform="rotate(25)" id="9b82179d-5b93-4c12-b624-e6c97db6e9f1" x1="0%" y1="0%" x2="100%" y2="0%"><stop data-v-423bf9ae="" offset="0%" style="stop-color: rgb(184, 39, 255); stop-opacity: 1;"></stop><stop data-v-423bf9ae="" offset="100%" style="stop-color: rgb(108, 233, 255); stop-opacity: 1;"></stop></linearGradient></defs><g data-v-423bf9ae="" id="ae558200-b4c5-46ae-a03c-20751b04f7de" transform="matrix(1.4754098360655739,0,0,1.4754098360655739,0.22950819672131217,0)" stroke="none" fill="url(#9b82179d-5b93-4c12-b624-e6c97db6e9f1)"><path d="M89 0c-6.075 0-11 4.925-11 11 0 2.314.719 4.46 1.939 6.232l-4.207 4.207C73.96 20.219 71.814 19.5 69.5 19.5s-4.46.719-6.232 1.939l-4.207-4.207A10.954 10.954 0 0 0 61 11c0-6.075-4.925-11-11-11S39 4.925 39 11c0 2.314.719 4.46 1.94 6.232l-4.208 4.207C34.96 20.219 32.815 19.5 30.5 19.5s-4.46.719-6.232 1.939l-4.208-4.207A10.947 10.947 0 0 0 22 11c0-6.075-4.925-11-11-11S0 4.925 0 11s4.925 11 11 11c2.315 0 4.46-.719 6.232-1.939l4.208 4.207A10.947 10.947 0 0 0 19.5 30.5c0 6.075 4.925 11 11 11 2.315 0 4.46-.719 6.232-1.939l4.208 4.207A10.947 10.947 0 0 0 39 50c0 6.075 4.925 11 11 11s11-4.925 11-11c0-2.314-.719-4.46-1.939-6.232l4.207-4.207A10.954 10.954 0 0 0 69.5 41.5c6.075 0 11-4.925 11-11 0-2.314-.719-4.46-1.939-6.232l4.207-4.207A10.954 10.954 0 0 0 89 22c6.075 0 11-4.925 11-11S95.075 0 89 0zM60.439 36.732l-4.207 4.207A10.954 10.954 0 0 0 50 39c-2.315 0-4.46.719-6.232 1.939l-4.208-4.207c1.221-1.772 1.94-3.918 1.94-6.232s-.719-4.46-1.94-6.232l4.208-4.207A10.952 10.952 0 0 0 50 22c2.314 0 4.46-.719 6.232-1.939l4.207 4.207C59.219 26.04 58.5 28.186 58.5 30.5s.719 4.46 1.939 6.232z"></path></g><!----></svg>